<?xml version="1.0" encoding="UTF-8"?>
<svg width="317px" height="73px" viewBox="0 0 317 73" version="1.1" xmlns="http://www.w3.org/2000/svg" xmlns:xlink="http://www.w3.org/1999/xlink">
    <title>Group 39</title>
    <defs>
        <polygon id="path-1" points="0.110796004 0.0586320023 70.8372868 0.0586320023 70.8372868 19.8158864 0.110796004 19.8158864"></polygon>
        <polygon id="path-3" points="0.0617542329 0.074256003 52.1018421 0.074256003 52.1018421 65.5199328 0.0617542329 65.5199328"></polygon>
    </defs>
    <g id="Desktop" stroke="none" stroke-width="1" fill="none" fill-rule="evenodd">
        <g id="Group-39">
            <path d="M280.51786,34.8662342 L285.599692,34.8662342 L285.636316,37.7151783 C287.040964,35.8488662 288.58018,33.8580661 290.27026,31.7449621 L280.51786,31.7449621 L280.51786,34.8662342 Z" id="Fill-1" fill="#FEFEFE"></path>
            <path d="M7.4446851,33.1277533 L7.4446851,19.3976168 L8.96038116,19.3976168 C12.9715493,19.3976168 15.7806774,21.8047209 15.7806774,25.905601 C15.7806774,30.8535372 12.6605813,33.0378733 7.4446851,33.1277533 M8.96038116,15.8314806 L0.000100800004,15.8314806 L0.000100800004,48.1498099 L7.4446851,48.1498099 L7.4446851,36.6041775 C16.4493175,36.7824255 23.3579817,32.8597933 23.3579817,24.880297 C23.3579817,17.7036727 16.9398775,15.8314806 8.96038116,15.8314806" id="Fill-3" fill="#FEFEFE"></path>
            <path d="M249.626708,45.6540858 C247.397851,45.6540858 245.391763,44.9854458 243.743179,44.2267578 L243.341155,47.3466859 C244.902547,48.0154939 247.309483,48.5957659 249.760604,48.5957659 C257.561684,48.5957659 261.35042,44.8513818 261.35042,40.3483096 C261.35042,35.5786214 257.91818,33.0376213 254.486276,30.2300052 C251.454716,27.7333571 248.601403,25.548685 248.601403,23.0078529 C248.601403,20.5565648 250.919804,18.6401887 254.396396,18.6401887 C256.49102,18.6401887 258.186308,19.2191168 259.478396,19.7096768 L259.924604,16.7224687 C258.498788,16.1435406 256.446836,15.7428606 254.0399,15.7428606 C247.175419,15.7428606 243.787531,19.1749328 243.787531,23.2758129 C243.787531,28.1353811 246.640843,30.2743572 250.20698,33.2615653 C253.104476,35.7126854 256.49102,38.1196215 256.49102,40.8830536 C256.49102,44.0043257 253.371092,45.6540858 249.626708,45.6540858" id="Fill-5" fill="#FEFEFE"></path>
            <g id="Group-9" transform="translate(232.344009, 0.109368)">
                <mask id="mask-2" fill="white">
                    <use xlink:href="#path-1"></use>
                </mask>
                <g id="Clip-8"></g>
                <path d="M3.01450812,2.96229372 L67.9334067,2.96229372 L67.9334067,19.8158864 C68.8762227,18.7588303 69.8386948,17.6915263 70.8372868,16.6032223 L70.8372868,0.0585816023 L0.110796004,0.0585816023 L0.110796004,18.6469423 L3.01450812,18.6469423 L3.01450812,2.96229372 Z" id="Fill-7" fill="#FEFEFE" mask="url(#mask-2)"></path>
            </g>
            <path d="M205.006947,33.8404429 L196.759491,34.909931 C196.937739,32.1920269 197.784795,28.5360107 201.172683,28.5360107 C203.713683,28.5360107 205.051299,30.6749868 205.051299,32.9933869 C205.051299,33.3056989 205.051299,33.5738269 205.006947,33.8404429 M201.128499,25.1923066 C194.396907,25.1923066 189.716931,30.8987628 189.716931,37.4067471 C189.716931,45.1636434 195.511755,48.4618195 202.600011,48.4618195 C204.604755,48.4618195 208.036995,48.2393875 209.910532,47.5705795 L209.508676,44.1383394 C207.948627,44.6288994 206.344395,44.9398674 204.694803,44.9398674 C200.325627,44.9398674 197.071803,42.3986993 196.803843,37.8529551 L210.980188,36.5155071 C211.0699,35.891051 211.114252,35.311955 211.114252,34.687499 C211.114252,28.6700747 206.967675,25.1923066 201.128499,25.1923066" id="Fill-10" fill="#FEFEFE"></path>
            <path d="M282.391295,18.5951815 C284.842583,18.5951815 286.893023,19.1299256 288.586967,19.6646696 L288.988991,16.7229895 C287.339231,16.2325974 284.798231,15.7875654 281.945087,15.7875654 C273.653447,15.7875654 265.896183,21.7606377 265.896183,32.6374621 C265.858247,42.4664705 271.289015,47.1545107 278.176175,48.2455027 C278.725031,47.4137347 279.330503,46.5117426 280.011407,45.5200386 C275.073887,44.4646626 271.290695,39.6491104 271.290695,31.7006941 C271.290695,23.0083737 276.462407,18.5951815 282.391295,18.5951815" id="Fill-12" fill="#FEFEFE"></path>
            <path d="M290.50336,47.2574779 L290.494456,44.1157098 C289.739296,45.3743658 289.001608,46.6370539 288.27652,47.9002459 C289.105264,47.7268699 289.867312,47.5173739 290.50336,47.2574779" id="Fill-14" fill="#FEFEFE"></path>
            <path d="M49.7921612,34.3315574 C49.7921612,28.1345411 46.7607691,25.192861 40.9657768,25.192861 C38.6927367,25.192861 36.5084007,25.995565 35.2149686,27.2433011 L35.2149686,21.0021008 C35.2149686,18.8175967 35.0367206,16.6330927 34.1898326,15.0745566 L27.1472723,15.9202686 C27.8159123,17.9265247 28.0383443,19.9767968 28.0383443,22.2953649 L28.0383443,48.1500619 L35.2149686,48.1500619 L35.2149686,30.8537892 C36.3301526,29.7401172 37.4451687,29.4278052 38.8268007,29.4278052 C41.2780888,29.4278052 42.6155369,31.1661012 42.6155369,34.1533094 L42.6155369,41.4183016 C42.6155369,47.1247579 46.7607691,48.1942459 48.9451051,48.5065579 L51.3962252,46.5003018 C50.0602892,45.2525658 49.7921612,43.1124137 49.7921612,39.5019256 L49.7921612,34.3315574 Z" id="Fill-16" fill="#FEFEFE"></path>
            <path d="M270.806687,63.0420025 C270.402815,62.1586585 270.022127,61.3262184 269.651687,60.5159544 L235.358517,60.5159544 L235.358517,53.7720981 L232.454805,53.7720981 L232.454805,63.4198345 L270.979391,63.4198345 C270.921935,63.2938345 270.864311,63.1680025 270.806687,63.0420025" id="Fill-18" fill="#FEFEFE"></path>
            <path d="M179.552981,30.8089668 L179.464445,30.8089668 C179.464445,29.2049028 179.196485,26.2618786 178.571861,25.2365746 L171.617836,26.0849746 C172.286476,27.6448547 172.466068,30.4979988 172.466068,32.4145429 L172.466068,48.1495915 L179.642693,48.1495915 L179.642693,36.8277351 C179.642693,34.197023 181.158557,32.0125189 184.322669,31.8797989 C185.347805,31.8342709 186.819317,32.1022309 187.354061,32.3246629 L187.888637,25.2365746 L186.462821,25.2365746 C183.341549,25.2365746 180.890429,27.3768947 179.552981,30.8089668" id="Fill-20" fill="#FEFEFE"></path>
            <path d="M225.46703,44.405241 C224.575622,44.405241 223.996862,44.271177 223.194158,43.9146809 L223.194158,31.0329444 C224.041214,30.0961764 225.110534,29.5614324 226.447982,29.5614324 C229.612094,29.5614324 231.574166,32.5031125 231.574166,36.6039927 C231.574166,40.9730008 229.255766,44.405241 225.46703,44.405241 M238.974566,36.3815606 C238.974566,29.7396804 235.096118,25.1924242 228.988982,25.1924242 C226.760126,25.1924242 224.664326,25.8170482 223.014398,27.6007043 L222.92603,27.6007043 C222.747614,26.6639363 222.525182,25.8612322 222.168854,25.1924242 L215.124781,26.0394802 C215.793589,28.0457363 216.016021,30.0961764 216.016021,32.4145765 L216.016021,56.3515534 L223.194158,56.3515534 L223.194158,47.7931291 C224.530094,48.2835211 225.512558,48.4619371 226.804478,48.4619371 C232.465406,48.4619371 238.974566,44.137113 238.974566,36.3815606" id="Fill-22" fill="#FEFEFE"></path>
            <path d="M152.629014,33.1277533 L152.629014,19.3976168 L154.144542,19.3976168 C158.15571,19.3976168 160.964838,21.8047209 160.964838,25.905601 C160.964838,30.8535372 157.843566,33.0378733 152.629014,33.1277533 M154.144542,15.8314806 L145.184262,15.8314806 L145.184262,48.1498099 L152.629014,48.1498099 L152.629014,36.6041775 C161.633646,36.7824255 168.542143,32.8597933 168.542143,24.880297 C168.542143,17.7036727 162.124206,15.8314806 154.144542,15.8314806" id="Fill-24" fill="#FEFEFE"></path>
            <path d="M300.277399,28.9188995 L300.277399,60.5160048 L281.721798,60.5160048 C281.27559,61.4967888 280.855926,62.4637969 280.457598,63.4198849 L303.181279,63.4198849 L303.181279,24.7256194 C302.232247,26.0775154 301.263055,27.4752755 300.277399,28.9188995" id="Fill-26" fill="#FEFEFE"></path>
            <path d="M70.519498,42.8456633 C69.672442,43.7810873 68.5574259,44.3613594 67.2213219,44.3613594 C64.0558657,44.3613594 62.0937937,41.1073672 62.0937937,37.0051431 C62.0937937,32.6374789 64.3681778,29.0271588 68.4248739,29.0271588 C69.226234,29.0271588 69.716794,29.1597108 70.519498,29.4278388 L70.519498,42.8456633 Z M77.6519383,25.5935746 L73.7734901,25.5935746 L73.3271141,26.6630627 C71.678698,25.6377586 69.271762,25.1928946 67.0872579,25.1928946 C61.6047456,25.1928946 54.7389214,29.1155268 54.7389214,37.3174551 C54.7389214,43.9591673 58.5731855,48.4624075 64.5020738,48.4624075 C67.5321219,48.4624075 69.806506,47.7037195 71.9012981,45.6988074 C73.0163141,47.5709995 74.8428102,48.2398075 76.8050503,48.5064235 L79.2560023,46.5003354 C77.8743703,45.2967834 77.6519383,42.8001353 77.6519383,39.2338312 L77.6519383,25.5935746 Z" id="Fill-28" fill="#FEFEFE"></path>
            <path d="M138.410283,34.3315574 C138.410283,28.1345411 135.601323,25.192861 129.806331,25.192861 C127.041555,25.192861 124.902747,26.084101 122.629706,28.1787251 C121.246562,26.084101 118.97369,25.192861 115.585802,25.192861 C113.357114,25.192861 111.484754,25.771789 109.701098,27.4215491 L109.612562,27.4215491 C109.434314,26.5303091 109.211882,25.861669 108.854042,25.192861 L101.855666,26.039917 C102.524474,28.0460051 102.74825,30.0966132 102.74825,32.4136693 L102.74825,48.1500619 L109.924874,48.1500619 L109.924874,30.8537892 C111.084074,29.8284852 112.06385,29.4278052 113.446826,29.4278052 C115.898114,29.4278052 117.01313,31.1661012 117.01313,34.1533094 L117.01313,48.1500619 L124.145403,48.1500619 L124.145403,34.5539894 C124.145403,33.3062533 124.055691,32.1470533 123.833091,31.1661012 C125.125179,29.8726692 126.328563,29.4278052 127.666011,29.4278052 C130.073115,29.4278052 131.277843,31.1661012 131.277843,34.1533094 L131.277843,41.4183016 C131.277843,47.1247579 135.333195,48.1942459 137.517699,48.5065579 L139.970163,46.5003018 C138.676899,45.2525658 138.410283,43.1124137 138.410283,39.5019256 L138.410283,34.3315574 Z" id="Fill-30" fill="#FEFEFE"></path>
            <path d="M91.1577444,30.8089668 L91.0693764,30.8089668 C91.0693764,29.2049028 90.8012484,26.2618786 90.1767924,25.2365746 L83.2226001,26.0849746 C83.8914081,27.6448547 84.0696561,30.4979988 84.0696561,32.4145429 L84.0696561,48.1495915 L91.2474564,48.1495915 L91.2474564,36.8277351 C91.2474564,34.197023 92.7633205,32.0125189 95.9274326,31.8797989 C96.9527367,31.8342709 98.4240807,32.1022309 98.9589927,32.3246629 L99.4935688,25.2365746 L98.0677527,25.2365746 C94.9463126,25.2365746 92.4951925,27.3768947 91.1577444,30.8089668" id="Fill-32" fill="#FEFEFE"></path>
            <g id="Group-36" transform="translate(263.088010, 6.157368)">
                <mask id="mask-4" fill="white">
                    <use xlink:href="#path-3"></use>
                </mask>
                <g id="Clip-35"></g>
                <path d="M0.0694176028,36.1121054 C0.0694176028,36.1121054 11.6135381,46.6366339 12.7161221,48.4742179 C12.7161221,48.4742179 24.4551226,27.3423371 52.1020437,0.074256003 C52.1020437,0.074256003 19.1537144,41.2782736 13.0947941,65.5163066 C13.4732981,65.8949786 -0.309254412,36.4906095 0.0694176028,36.1121054" id="Fill-34" fill="#87AC27" mask="url(#mask-4)"></path>
            </g>
            <path d="M168.313058,62.4239809 C168.313058,60.9423888 167.557394,59.4891888 165.988106,59.4891888 C164.695514,59.4891888 163.634762,60.5795088 163.634762,62.4239809 C163.634762,64.225445 164.579258,65.372213 165.94493,65.372213 C167.164778,65.372213 168.313058,64.501973 168.313058,62.4239809 L168.313058,62.4239809 Z M165.90041,58.6039967 C167.673314,58.6039967 168.283322,59.9696688 168.283322,59.9696688 L168.313058,59.9696688 C168.313058,59.9696688 168.283322,59.7225408 168.283322,59.4176208 L168.283322,57.0496607 C168.283322,56.8458767 168.167234,56.7297887 167.96345,56.7297887 L167.35361,56.7297887 L167.35361,55.8729886 L168.384458,55.8729886 C169.00925,55.8729886 169.270994,56.1347326 169.270994,56.7581807 L169.270994,64.908197 C169.270994,65.125421 169.387082,65.227901 169.590698,65.227901 L170.200706,65.227901 L170.200706,66.084701 L169.183298,66.084701 C168.573458,66.084701 168.313058,65.808173 168.313058,65.271077 C168.313058,64.995893 168.341282,64.806893 168.341282,64.806893 L168.313058,64.806893 C168.313058,64.806893 167.71649,66.258749 165.799106,66.258749 C163.838546,66.258749 162.617522,64.689461 162.617522,62.4239809 C162.617522,60.1139808 163.983026,58.6039967 165.90041,58.6039967 L165.90041,58.6039967 Z M159.55589,61.6832689 C159.497762,60.1719408 158.56805,59.4312288 157.492681,59.4312288 C156.287785,59.4312288 155.227873,60.2164608 154.981081,61.6832689 L159.55589,61.6832689 Z M157.507633,58.6039967 C159.527498,58.6039967 160.573298,60.1585008 160.573298,61.9732369 C160.573298,62.1487969 160.543562,62.4671569 160.543562,62.4671569 L154.937065,62.4671569 C154.966129,64.313141 156.258721,65.372213 157.769209,65.372213 C159.105146,65.372213 159.96329,64.472237 159.96329,64.472237 L160.442258,65.213117 C160.442258,65.213117 159.381842,66.258749 157.726033,66.258749 C155.561857,66.258749 153.905545,64.689461 153.905545,62.4387649 C153.905545,60.0424128 155.547073,58.6039967 157.507633,58.6039967 L157.507633,58.6039967 Z M150.872305,61.6832689 C150.814177,60.1719408 149.884633,59.4312288 148.809097,59.4312288 C147.603529,59.4312288 146.543617,60.2164608 146.296657,61.6832689 L150.872305,61.6832689 Z M148.823881,58.6039967 C150.843241,58.6039967 151.888873,60.1585008 151.888873,61.9732369 C151.888873,62.1487969 151.859809,62.4671569 151.859809,62.4671569 L146.252809,62.4671569 C146.281705,64.313141 147.574465,65.372213 149.085793,65.372213 C150.421561,65.372213 151.279033,64.472237 151.279033,64.472237 L151.758001,65.213117 C151.758001,65.213117 150.698089,66.258749 149.041777,66.258749 C146.877601,66.258749 145.221289,64.689461 145.221289,62.4387649 C145.221289,60.0424128 146.862649,58.6039967 148.823881,58.6039967 L148.823881,58.6039967 Z M140.545849,59.6066208 L139.587073,59.6066208 L139.587073,58.7780447 L140.560633,58.7780447 L140.560633,56.7581807 L141.534193,56.7581807 L141.534193,58.7780447 L143.363881,58.7780447 L143.363881,59.6066208 L141.534193,59.6066208 L141.534193,63.3253009 C141.534193,65.038901 142.623001,65.256293 143.175721,65.256293 C143.378833,65.256293 143.509537,65.227901 143.509537,65.227901 L143.509537,66.114437 C143.509537,66.114437 143.334817,66.142829 143.088025,66.142829 C142.246009,66.142829 140.545849,65.867477 140.545849,63.4266049 L140.545849,59.6066208 Z M130.903488,59.9547168 C130.903488,59.7509328 130.7874,59.6348448 130.584288,59.6348448 L129.973776,59.6348448 L129.973776,58.7780447 L130.990512,58.7780447 C131.601192,58.7780447 131.877048,59.0397887 131.877048,59.5918368 L131.877048,59.9249808 C131.877048,60.2164608 131.847984,60.4486368 131.847984,60.4486368 L131.877048,60.4486368 C132.13812,59.7806688 133.067832,58.6039967 134.782105,58.6039967 C136.597681,58.6039967 137.237257,59.6348448 137.237257,61.4363088 L137.237257,64.908197 C137.237257,65.125421 137.353345,65.227901 137.556961,65.227901 L138.166969,65.227901 L138.166969,66.084701 L137.135281,66.084701 C136.510657,66.084701 136.249585,65.822957 136.249585,65.198165 L136.249585,61.6980529 C136.249585,60.5497728 136.074697,59.5337088 134.666017,59.5337088 C133.416601,59.5337088 132.341904,60.3905088 132.00792,61.5955728 C131.920224,61.9018369 131.89116,62.2349809 131.89116,62.5832449 L131.89116,66.084701 L130.903488,66.084701 L130.903488,59.9547168 Z M124.45632,65.416733 C125.850888,65.416733 126.693576,63.9637009 126.693576,62.7005089 L126.693576,62.3660209 L126.271896,62.3660209 C125.124288,62.3660209 122.829072,62.3957569 122.829072,64.0364449 C122.829072,64.719197 123.36684,65.416733 124.45632,65.416733 L124.45632,65.416733 Z M126.28668,61.5819648 L126.693576,61.5819648 L126.693576,61.4942688 C126.693576,59.9696688 126.141696,59.4312288 124.805088,59.4312288 C124.441536,59.4312288 123.381624,59.5337088 123.381624,60.0708048 L123.381624,60.5363328 L122.437128,60.5363328 L122.437128,59.8386288 C122.437128,58.8213887 124.180464,58.6039967 124.819368,58.6039967 C127.129368,58.6039967 127.681248,59.8386288 127.681248,61.4065728 L127.681248,64.908197 C127.681248,65.125421 127.797336,65.227901 128.00112,65.227901 L128.61096,65.227901 L128.61096,66.084701 L127.608336,66.084701 C126.983712,66.084701 126.736752,65.808173 126.736752,65.213117 C126.736752,64.893245 126.751536,64.676021 126.751536,64.676021 L126.72264,64.676021 C126.736752,64.676021 126.126912,66.258749 124.296552,66.258749 C123.076032,66.258749 121.812336,65.547773 121.812336,64.0944049 C121.812336,61.6683169 125.023152,61.5819648 126.28668,61.5819648 L126.28668,61.5819648 Z M117.006024,59.9547168 C117.006024,59.7509328 116.890104,59.6348448 116.686992,59.6348448 L116.076312,59.6348448 L116.076312,58.7780447 L117.093048,58.7780447 C117.70356,58.7780447 117.979584,59.0250047 117.979584,59.6066208 L117.979584,60.1003728 C117.979584,60.4054608 117.950688,60.6524208 117.950688,60.6524208 L117.979584,60.6524208 C118.328352,59.5471488 119.141472,58.7053007 120.28908,58.7053007 C120.492696,58.7053007 120.681528,58.7484767 120.681528,58.7484767 L120.681528,59.7225408 C120.681528,59.7225408 120.506808,59.6929728 120.317976,59.6929728 C119.287128,59.6929728 118.51668,60.5065968 118.19748,61.5819648 C118.051824,62.0461489 117.993696,62.5400689 117.993696,63.0055969 L117.993696,66.084701 L117.006024,66.084701 L117.006024,59.9547168 Z M110.559024,65.416733 C111.953424,65.416733 112.796112,63.9637009 112.796112,62.7005089 L112.796112,62.3660209 L112.374432,62.3660209 C111.226824,62.3660209 108.931776,62.3957569 108.931776,64.0364449 C108.931776,64.719197 109.469376,65.416733 110.559024,65.416733 L110.559024,65.416733 Z M112.389384,61.5819648 L112.796112,61.5819648 L112.796112,61.4942688 C112.796112,59.9696688 112.244232,59.4312288 110.907792,59.4312288 C110.544072,59.4312288 109.48416,59.5337088 109.48416,60.0708048 L109.48416,60.5363328 L108.539664,60.5363328 L108.539664,59.8386288 C108.539664,58.8213887 110.283,58.6039967 110.921904,58.6039967 C113.232072,58.6039967 113.783784,59.8386288 113.783784,61.4065728 L113.783784,64.908197 C113.783784,65.125421 113.899872,65.227901 114.103656,65.227901 L114.713496,65.227901 L114.713496,66.084701 L113.71104,66.084701 C113.086248,66.084701 112.839288,65.808173 112.839288,65.213117 C112.839288,64.893245 112.85424,64.676021 112.85424,64.676021 L112.825176,64.676021 C112.839288,64.676021 112.229448,66.258749 110.399088,66.258749 C109.178568,66.258749 107.914871,65.547773 107.914871,64.0944049 C107.914871,61.6683169 111.125688,61.5819648 112.389384,61.5819648 L112.389384,61.5819648 Z M99.1004151,59.9547168 C99.1004151,59.7509328 98.9844951,59.6348448 98.7807111,59.6348448 L98.1707031,59.6348448 L98.1707031,58.7780447 L99.2022231,58.7780447 C99.8270152,58.7780447 100.088087,59.0397887 100.088087,59.6348448 L100.088087,63.1648609 C100.088087,64.313141 100.277087,65.329037 101.686439,65.329037 C103.342079,65.329037 104.373599,63.8623969 104.373599,62.2783249 L104.373599,58.7780447 L105.361439,58.7780447 L105.361439,64.908197 C105.361439,65.125421 105.477359,65.227901 105.681143,65.227901 L106.290983,65.227901 L106.290983,66.084701 L105.288527,66.084701 C104.678519,66.084701 104.402663,65.822957 104.402663,65.271077 L104.402663,64.937765 C104.402663,64.646453 104.431559,64.414277 104.431559,64.414277 L104.402663,64.414277 C104.111855,65.125421 103.153247,66.258749 101.555567,66.258749 C99.8270152,66.258749 99.1004151,65.329037 99.1004151,63.4266049 L99.1004151,59.9547168 Z M92.0731429,55.6989406 C94.441271,55.6989406 95.646839,56.9470127 95.646839,56.9470127 L95.051111,57.7026767 C95.051111,57.7026767 93.9182869,56.6568767 92.0879269,56.6568767 C89.7927108,56.6568767 88.0352627,58.5015167 88.0352627,60.9573408 C88.0352627,63.4697809 89.7638148,65.300813 92.0731429,65.300813 C94.0923349,65.300813 95.298071,63.8044369 95.298071,63.8044369 L95.298071,62.5400689 C95.298071,62.3228449 95.181983,62.2203649 94.978199,62.2203649 L94.3542469,62.2203649 L94.3542469,61.3202208 L95.370815,61.3202208 C95.995607,61.3202208 96.256679,61.5819648 96.256679,62.2067569 L96.256679,66.084701 L95.327135,66.084701 L95.327135,65.314253 C95.327135,65.097029 95.341919,64.878461 95.341919,64.878461 L95.312855,64.878461 C95.312855,64.878461 94.1213989,66.258749 91.9711669,66.258749 C89.1821987,66.258749 86.9746787,64.0216609 86.9746787,60.9573408 C86.9746787,58.0225487 89.1821987,55.6989406 92.0731429,55.6989406 L92.0731429,55.6989406 Z M78.7720783,62.4239809 C78.7720783,60.9423888 78.0165823,59.4891888 76.4479662,59.4891888 C75.1545342,59.4891888 74.0939501,60.5795088 74.0939501,62.4239809 C74.0939501,64.225445 75.0384462,65.372213 76.4039502,65.372213 C77.6246383,65.372213 78.7720783,64.501973 78.7720783,62.4239809 L78.7720783,62.4239809 Z M76.3602702,58.6039967 C78.1325023,58.6039967 78.7423423,59.9696688 78.7423423,59.9696688 L78.7720783,59.9696688 C78.7720783,59.9696688 78.7423423,59.7225408 78.7423423,59.4176208 L78.7423423,57.0496607 C78.7423423,56.8458767 78.6264223,56.7297887 78.4233103,56.7297887 L77.8127983,56.7297887 L77.8127983,55.8729886 L78.8443183,55.8729886 C79.4691104,55.8729886 79.7308544,56.1347326 79.7308544,56.7581807 L79.7308544,64.908197 C79.7308544,65.125421 79.8469424,65.227901 80.0500544,65.227901 L80.6605664,65.227901 L80.6605664,66.084701 L79.6431584,66.084701 C79.0331503,66.084701 78.7720783,65.808173 78.7720783,65.271077 C78.7720783,64.995893 78.8011423,64.806893 78.8011423,64.806893 L78.7720783,64.806893 C78.7720783,64.806893 78.1763503,66.258749 76.2589662,66.258749 C74.2977342,66.258749 73.0772141,64.689461 73.0772141,62.4239809 C73.0772141,60.1139808 74.4428862,58.6039967 76.3602702,58.6039967 L76.3602702,58.6039967 Z M68.0382219,59.9547168 C68.0382219,59.7509328 67.9221339,59.6348448 67.7191899,59.6348448 L67.1085099,59.6348448 L67.1085099,58.7780447 L68.1252459,58.7780447 C68.7357579,58.7780447 69.0117819,59.0250047 69.0117819,59.6066208 L69.0117819,60.1003728 C69.0117819,60.4054608 68.9827179,60.6524208 68.9827179,60.6524208 L69.0117819,60.6524208 C69.36055,59.5471488 70.173502,58.7053007 71.32111,58.7053007 C71.524894,58.7053007 71.713726,58.7484767 71.713726,58.7484767 L71.713726,59.7225408 C71.713726,59.7225408 71.539006,59.6929728 71.350174,59.6929728 C70.319326,59.6929728 69.54871,60.5065968 69.229678,61.5819648 C69.0840219,62.0461489 69.0258939,62.5400689 69.0258939,63.0055969 L69.0258939,66.084701 L68.0382219,66.084701 L68.0382219,59.9547168 Z M61.5917256,65.416733 C62.9862937,65.416733 63.8289817,63.9637009 63.8289817,62.7005089 L63.8289817,62.3660209 L63.4073017,62.3660209 C62.2596937,62.3660209 59.9644776,62.3957569 59.9644776,64.0364449 C59.9644776,64.719197 60.5022456,65.416733 61.5917256,65.416733 L61.5917256,65.416733 Z M63.4220857,61.5819648 L63.8289817,61.5819648 L63.8289817,61.4942688 C63.8289817,59.9696688 63.2771017,59.4312288 61.9406617,59.4312288 C61.5769416,59.4312288 60.5170296,59.5337088 60.5170296,60.0708048 L60.5170296,60.5363328 L59.5725336,60.5363328 L59.5725336,59.8386288 C59.5725336,58.8213887 61.3158696,58.6039967 61.9547737,58.6039967 C64.2647738,58.6039967 64.8166538,59.8386288 64.8166538,61.4065728 L64.8166538,64.908197 C64.8166538,65.125421 64.9327418,65.227901 65.1365258,65.227901 L65.7463658,65.227901 L65.7463658,66.084701 L64.7439098,66.084701 C64.1191177,66.084701 63.8721577,65.808173 63.8721577,65.213117 C63.8721577,64.893245 63.8869417,64.676021 63.8869417,64.676021 L63.8580457,64.676021 C63.8721577,64.676021 63.2623177,66.258749 61.4319576,66.258749 C60.2114376,66.258749 58.9477415,65.547773 58.9477415,64.0944049 C58.9477415,61.6683169 62.1583897,61.5819648 63.4220857,61.5819648 L63.4220857,61.5819648 Z M55.4064694,62.4239809 C55.4064694,60.9423888 54.6508054,59.4891888 53.0821893,59.4891888 C51.7889253,59.4891888 50.7290132,60.5795088 50.7290132,62.4239809 C50.7290132,64.225445 51.6728373,65.372213 53.0383413,65.372213 C54.2588614,65.372213 55.4064694,64.501973 55.4064694,62.4239809 L55.4064694,62.4239809 Z M52.9944933,58.6039967 C54.7668934,58.6039967 55.3774054,59.9696688 55.3774054,59.9696688 L55.4064694,59.9696688 C55.4064694,59.9696688 55.3774054,59.7225408 55.3774054,59.4176208 L55.3774054,57.0496607 C55.3774054,56.8458767 55.2606454,56.7297887 55.0577014,56.7297887 L54.4476934,56.7297887 L54.4476934,55.8729886 L55.4787094,55.8729886 C56.1033334,55.8729886 56.3652454,56.1347326 56.3652454,56.7581807 L56.3652454,64.908197 C56.3652454,65.125421 56.4811654,65.227901 56.6842775,65.227901 L57.2947895,65.227901 L57.2947895,66.084701 L56.2775494,66.084701 C55.6675414,66.084701 55.4064694,65.808173 55.4064694,65.271077 C55.4064694,64.995893 55.4353654,64.806893 55.4353654,64.806893 L55.4064694,64.806893 C55.4064694,64.806893 54.8107414,66.258749 52.8933573,66.258749 C50.9321252,66.258749 49.7116052,64.689461 49.7116052,62.4239809 C49.7116052,60.1139808 51.0771092,58.6039967 52.9944933,58.6039967 L52.9944933,58.6039967 Z M40.8101248,59.9547168 C40.8101248,59.7509328 40.6940368,59.6348448 40.4909248,59.6348448 L39.8804128,59.6348448 L39.8804128,58.7780447 L40.8971488,58.7780447 C41.5076608,58.7780447 41.7836849,59.0397887 41.7836849,59.5918368 L41.7836849,59.9249808 C41.7836849,60.2164608 41.7546209,60.4486368 41.7546209,60.4486368 L41.7836849,60.4486368 C42.0447569,59.7806688 42.9744689,58.6039967 44.688741,58.6039967 C46.504317,58.6039967 47.1437251,59.6348448 47.1437251,61.4363088 L47.1437251,64.908197 C47.1437251,65.125421 47.2598131,65.227901 47.4635971,65.227901 L48.0736051,65.227901 L48.0736051,66.084701 L47.0419171,66.084701 C46.417293,66.084701 46.156053,65.822957 46.156053,65.198165 L46.156053,61.6980529 C46.156053,60.5497728 45.981333,59.5337088 44.572653,59.5337088 C43.3232369,59.5337088 42.2485409,60.3905088 41.9143889,61.5955728 C41.8266929,61.9018369 41.7977969,62.2349809 41.7977969,62.5832449 L41.7977969,66.084701 L40.8101248,66.084701 L40.8101248,59.9547168 Z M34.3629566,65.416733 C35.7575246,65.416733 36.6002127,63.9637009 36.6002127,62.7005089 L36.6002127,62.3660209 L36.1785326,62.3660209 C35.0309246,62.3660209 32.7357085,62.3957569 32.7357085,64.0364449 C32.7357085,64.719197 33.2733085,65.416733 34.3629566,65.416733 L34.3629566,65.416733 Z M36.1933166,61.5819648 L36.6002127,61.5819648 L36.6002127,61.4942688 C36.6002127,59.9696688 36.0481646,59.4312288 34.7117246,59.4312288 C34.3481726,59.4312288 33.2882605,59.5337088 33.2882605,60.0708048 L33.2882605,60.5363328 L32.3437645,60.5363328 L32.3437645,59.8386288 C32.3437645,58.8213887 34.0871006,58.6039967 34.7258366,58.6039967 C37.0360047,58.6039967 37.5878847,59.8386288 37.5878847,61.4065728 L37.5878847,64.908197 C37.5878847,65.125421 37.7038047,65.227901 37.9075887,65.227901 L38.5175967,65.227901 L38.5175967,66.084701 L37.5149727,66.084701 C36.8903487,66.084701 36.6432207,65.808173 36.6432207,65.213117 C36.6432207,64.893245 36.6581727,64.676021 36.6581727,64.676021 L36.6291087,64.676021 C36.6432207,64.676021 36.0335486,66.258749 34.2030206,66.258749 C32.9825005,66.258749 31.7189725,65.547773 31.7189725,64.0944049 C31.7189725,61.6683169 34.9296206,61.5819648 36.1933166,61.5819648 L36.1933166,61.5819648 Z M26.9996843,59.6066208 L26.0410762,59.6066208 L26.0410762,58.7780447 L27.0146363,58.7780447 L27.0146363,56.7581807 L27.9880283,56.7581807 L27.9880283,58.7780447 L29.8177164,58.7780447 L29.8177164,59.6066208 L27.9880283,59.6066208 L27.9880283,63.3253009 C27.9880283,65.038901 29.0770044,65.256293 29.6295564,65.256293 C29.8325004,65.256293 29.9635404,65.227901 29.9635404,65.227901 L29.9635404,66.114437 C29.9635404,66.114437 29.7888204,66.142829 29.5418604,66.142829 C28.6998443,66.142829 26.9996843,65.867477 26.9996843,63.4266049 L26.9996843,59.6066208 Z M18.5637319,64.0661809 C18.5637319,64.0661809 19.59458,65.314253 21.207044,65.314253 C22.3255881,65.314253 23.2262361,64.588325 23.2262361,63.4993489 C23.2262361,60.9707808 18.1858999,61.4794848 18.1858999,58.3125167 C18.1858999,56.8890527 19.420532,55.6989406 21.308852,55.6989406 C22.2965241,55.6989406 24.0689242,56.1199486 24.0689242,57.4557167 L24.0689242,58.1829887 L23.1101481,58.1829887 L23.1101481,57.7026767 C23.1101481,57.0928367 22.2676281,56.6420927 21.323132,56.6420927 C20.001308,56.6420927 19.231532,57.4125407 19.231532,58.2842927 C19.231532,60.6524208 24.2720362,60.0708048 24.2720362,63.4413889 C24.2720362,64.966157 23.0953641,66.258749 21.17798,66.258749 C19.086548,66.258749 17.9389399,64.806893 17.9389399,64.806893 L18.5637319,64.0661809 Z M0.803107232,62.3808049 L10.9716436,62.3808049 L10.9716436,61.5374448 L0.803107232,61.5374448 L0.803107232,62.3808049 Z" id="Fill-37" fill="#87AC27"></path>
        </g>
    </g>
</svg>